<svg xmlns="http://www.w3.org/2000/svg" width="221" height="173" viewBox="0 0 221 173">
  <defs>
    <linearGradient id="no-results-a" x1=".042%" y1="50.012%" y2="50.012%">
      <stop offset="0%" stop-color="gray" stop-opacity=".25"/>
      <stop offset="54%" stop-color="gray" stop-opacity=".12"/>
      <stop offset="100%" stop-color="gray" stop-opacity=".1"/>
    </linearGradient>
  </defs>
  <g fill="none">
    <ellipse cx="77.63" cy="162.038" fill="#008DEA" opacity=".1" rx="38.495" ry="7.292"/>
    <path fill="#008DEA" d="M128.435757,24.3515331 C114.288259,23.8618793 100.814036,19.2932344 87.9475074,14.2961424 C75.0809792,9.29905045 62.3368645,3.76421365 48.5281899,1.11702275 C39.6466568,-0.585835806 29.4885262,-0.828476756 22.3338971,3.92816024 C15.4459545,8.51866469 13.2206528,16.4208902 12.0249357,23.7591395 C11.1243225,29.2808605 10.5953215,35.0933136 13.0610781,40.2630959 C14.7748665,43.8524332 17.8133432,46.8690504 19.9162315,50.3075569 C27.2326212,62.2690999 22.0606528,77.0199209 14.1343818,88.6994758 C10.4182591,94.1774777 6.10099901,99.4106528 3.23084075,105.236222 C0.360682493,111.06179 -0.966191889,117.759555 1.54546983,123.718467 C4.03308605,129.620544 9.96358061,134.044916 16.3881009,137.159901 C29.4360633,143.488239 44.8055094,145.29821 59.8033432,146.325608 C92.9926904,148.594629 126.356914,147.613136 159.633699,146.62727 C171.949367,146.264402 184.317498,145.894975 196.432057,143.991009 C203.160425,142.933007 210.105203,141.254194 214.990811,137.201434 C221.190178,132.057883 222.726904,123.349041 218.571405,116.900475 C211.602582,106.08 192.339951,103.393462 187.463086,91.7838576 C184.783106,85.3921266 187.535223,78.2746588 191.432779,72.3485361 C199.791869,59.6328388 213.801652,48.477913 214.538318,33.9456874 C215.04546,23.9646192 208.310534,13.9682493 197.896647,9.24440158 C186.982176,4.29321464 171.844441,4.91621167 163.795757,13.1113551 C155.500059,21.5403956 140.928487,24.7865381 128.435757,24.3515331 Z" opacity=".1"/>
    <path fill="url(#no-results-a)" d="M117.193393,79.0747181 L110.497814,74.5607221 L113.875114,69.5330267 L96.1907418,68.1230861 L89.8361721,73.0371118 L81.8814837,68.5777646 L75.2471118,69.375638 L75.1684174,67.6268744 C75.0862977,65.8037836 74.9031248,63.9866506 74.6197428,62.1838477 C74.6481602,61.6373591 74.6678338,61.0099901 74.6656479,60.3279723 C74.6656479,57.4534421 74.276548,53.6433234 72.5671316,51.1032443 L72.9606034,47.5663699 L69.7691098,43.7955984 C70.2816386,42.7746693 70.8660301,41.7914307 71.5178734,40.8533037 C71.6271711,40.6959149 71.7364688,40.5428981 71.8545104,40.3942532 C75.9968942,40.0947774 79.2648961,36.6890603 79.2648961,32.524817 C79.2648961,32.332453 79.2648961,32.140089 79.2430366,31.949911 C79.2430366,31.8734026 79.2277349,31.7947082 79.2189911,31.7181998 C79.6233927,31.9367953 80.0321662,32.1553907 80.4409397,32.3739862 C80.5174481,32.4832839 80.6048863,32.5925816 80.7010682,32.7215529 L80.7207418,32.7455984 L80.8431553,32.8964293 L80.8825025,32.9423343 C80.9262216,32.9947972 80.9721266,33.0450742 81.0180317,33.0975371 L81.048635,33.1325124 C81.1644906,33.2614837 81.2869041,33.3926409 81.4180613,33.5216123 C81.4336753,33.5343179 81.4482913,33.5482031 81.4617804,33.5631454 L81.625727,33.7161622 L81.671632,33.7576954 C81.8115331,33.8822948 81.960178,34.0025223 82.1088229,34.1161919 L82.1569139,34.1511672 L82.344906,34.2801385 L82.4061128,34.3194857 C82.4782493,34.3632047 82.5525717,34.4091098 82.6247082,34.4506429 L82.6509397,34.4659446 C82.7361919,34.5118497 82.8236301,34.5555687 82.9110682,34.5971019 L82.9547873,34.6145895 C83.0291098,34.6466502 83.1019749,34.6772535 83.1733828,34.7063996 L83.2411474,34.7304451 C83.3176558,34.7566766 83.3919782,34.7807221 83.4706726,34.8025816 L83.5187636,34.8156973 C83.6149456,34.8397428 83.7111276,34.8594164 83.8094955,34.8747181 L83.8204253,34.8747181 C83.9130505,34.8897016 84.0064812,34.8991907 84.1002275,34.9031355 L84.1636202,34.9031355 C84.2473578,34.9075187 84.3312673,34.9075187 84.4150049,34.9031355 L84.4696538,34.9031355 C84.574508,34.897097 84.6788979,34.884687 84.7822453,34.8659743 C85.2713401,34.8016668 85.7409525,34.6332026 86.1593966,34.3719486 C86.2659326,34.3007066 86.3603923,34.2128886 86.4391988,34.11182 C86.8763897,33.5390999 86.3954797,32.911731 86.3954797,32.911731 C86.2249753,32.5051434 85.1188823,32.2187834 85.1188823,32.2187834 C85.1188823,32.2187834 81.6213551,30.7585658 81.6213551,29.595638 C81.6213551,28.4327102 80.7469733,22.3994758 71.7211672,21.0201385 C71.7211672,21.0201385 65.8496934,20.6900593 64.1992977,23.8334619 L64.1643225,24.2007023 C63.6790406,24.50455 63.2768249,25.1144313 62.7981009,25.2936795 C62.5912746,25.3381019 62.3918143,25.4117035 62.2057072,25.512275 L62.2057072,25.4707418 C62.1504426,25.5190771 62.1051474,25.577738 62.072364,25.6434322 C61.9695327,25.8480402 61.907888,26.0708524 61.8909298,26.2992186 C61.8416825,26.5781824 61.7448168,26.8465964 61.6045697,27.0927201 C61.5654686,27.1626569 61.5216481,27.2298484 61.4734125,27.2938279 L61.4362512,27.3528487 C61.690036,27.3726262 61.9448698,27.3314031 62.1794758,27.2326212 C62.1425062,27.5318991 62.0690968,27.8255367 61.9608803,28.107003 C62.2446622,28.1161768 62.5077313,27.9590186 62.6341543,27.7047873 L62.6341543,27.6872997 L62.6625717,27.6479525 C62.7175414,27.5467594 62.7629158,27.4406418 62.7981009,27.3309891 L62.7740554,27.3572206 C62.8177745,27.2151335 62.8571217,27.0708605 62.9052127,26.9309594 C62.9272459,26.8521562 62.9635509,26.7780644 63.0123244,26.712364 C63.1306453,26.5930839 63.2985922,26.5371016 63.464817,26.5615331 L63.3751929,28.4567557 L63.4145401,28.4567557 C63.3618879,28.5946161 63.2975317,28.7277165 63.2221761,28.8545994 C62.9117705,29.3573689 62.3477943,29.7005638 62.1401286,30.2514243 C62.0505898,30.5171102 62.0163698,30.7983092 62.0395747,31.0777151 C62.0395747,31.2416617 62.0592483,31.4077943 62.072364,31.5717409 L62.072364,31.5586251 C62.1029674,31.995816 62.1117112,32.4111474 61.8756281,32.7630861 C61.7138675,33.003541 61.4537389,33.1849753 61.3641147,33.4582196 C61.3393225,33.5343586 61.328221,33.6142891 61.3313254,33.6943027 C61.3488638,33.9338527 61.3988694,34.169909 61.4799703,34.3959941 C61.4809182,34.3916735 61.4809182,34.3871989 61.4799703,34.3828783 C61.5344897,34.5491879 61.5472519,34.7263571 61.5171316,34.8987636 C61.4187636,35.3359545 60.8875767,35.7010089 60.9138081,36.1185262 C60.9123083,36.1734373 60.9204467,36.2281862 60.9378536,36.2802868 C61.0400557,36.4842206 61.2170302,36.6408351 61.4318793,36.7174777 C61.7689042,36.9091279 62.155975,36.9944663 62.5423442,36.9623046 C62.6871567,36.9361409 62.8271823,36.8882374 62.9576756,36.8202176 C62.8046588,37.1721563 62.64727,37.519723 62.4876954,37.8498022 C62.4636499,37.9022651 62.4374184,37.954728 62.4111869,38.0071909 C62.4111869,38.0071909 61.0602671,37.1043917 60.292997,38.9449654 C60.0690136,39.3274557 59.9088002,39.7438628 59.8186449,40.1778437 C59.7802052,40.3514438 59.7260622,40.5211896 59.6568843,40.6849852 C59.3162546,41.2616506 58.8064544,41.719555 58.1966667,41.9965579 C56.6315232,42.7135509 50.3097428,50.5982888 50.1982591,52.6399703 C50.1435478,53.4369571 50.0087974,54.2264182 49.7960435,54.9964293 C49.2983977,56.8097675 49.1705344,58.7046719 49.4200593,60.5684273 C49.49817,61.1707611 49.6276123,61.7653179 49.8069733,62.3456083 C50.4780613,64.3851039 50.926182,68.1908506 50.926182,68.1908506 L51.6519189,74.7968051 C51.6249776,75.7085494 51.664429,76.6210455 51.7699604,77.5270623 C51.0289219,78.3730267 48.0538378,81.8989713 49.1905341,82.8586053 C50.0649159,83.6149456 51.5950841,83.4903462 52.4541642,83.3351434 C51.7306133,85.1254402 50.591731,88.2382394 50.4409001,90.3761029 C50.2223046,93.539179 50.8146983,97.7296538 51.7524728,99.3385163 C52.6902473,100.947379 55.8161622,105.074461 55.8161622,105.074461 C55.8161622,105.074461 55.6697033,110.736083 56.786726,112.793066 C57.9037488,114.850049 58.3540554,119.117033 58.3540554,119.117033 C58.3540554,119.117033 59.3967557,122.719486 58.8743126,124.044174 C58.3518694,125.368863 59.8426904,126.470584 58.277547,127.351523 C56.7124036,128.232463 54.7100692,148.087488 54.7100692,148.087488 C54.7100692,148.087488 53.903452,161.100475 54.7100692,161.762819 C54.7532323,161.794197 54.7993562,161.821286 54.8477844,161.843699 L54.8477844,166.215608 C54.8477844,166.215608 54.28818,167.133709 56.5637587,167.319515 C58.1223442,167.444115 62.5401583,167.726103 65.1611177,167.890049 L67.1918694,168.016835 C67.1918694,168.016835 72.0009693,168.974283 74.1257171,168.016835 C76.2504649,167.059387 80.0168645,167.081246 79.4572601,164.552097 C79.3830568,164.207913 79.2836933,163.869638 79.1599703,163.54 C78.5457171,161.970485 77.5030168,161.791236 75.5815628,161.354045 C75.4700791,161.33 75.3629674,161.30814 75.2645994,161.290653 C73.2404055,160.938714 72.5758754,161.880861 71.441365,160.65454 C70.4554995,159.594352 67.3164688,158.407379 66.2475371,158.031395 C66.2737685,157.9527 66.3065579,157.876192 66.3327893,157.795312 C66.0301002,157.743959 65.7485746,157.606611 65.5218002,157.399654 L68.4181899,157.583274 L70.142908,157.690386 C70.142908,157.690386 74.2306429,158.505747 76.0449852,157.690386 C77.8593274,156.875025 81.050821,156.896884 80.5742829,154.748091 C80.5115117,154.455279 80.4274945,154.167429 80.3228981,153.886825 C79.800455,152.553393 78.9129575,152.406934 77.2800495,152.037507 C77.1860534,152.017834 77.0986152,151.99816 77.0111771,151.982859 C75.2908309,151.683383 74.7268546,152.483442 73.7628487,151.442928 C72.9365579,150.55543 70.3287141,149.560821 69.3909397,149.221998 C69.3909397,148.736716 68.7351533,148.045955 68.3220079,147.353007 C67.836726,146.544204 68.7329674,143.713393 68.7329674,143.713393 L69.2444807,131.968259 C69.4392722,131.881496 69.6453218,131.822625 69.856548,131.793383 C69.856548,131.793383 72.1692878,129.585569 71.6468447,127.233482 C71.5403958,126.522084 71.4848771,125.803994 71.4807122,125.084688 C72.2414243,124.378625 73.2884965,123.335925 73.5857864,122.693254 C74.0710682,121.646182 73.5857864,116.572582 73.5857864,116.572582 L73.5857864,97.1722354 L77.4549258,97.5635213 L80.9655687,97.9242038 L82.0345005,98.0335015 L85.5451434,98.3876261 L93.6135015,99.2029871 L100.883986,97.8258358 L104.029575,97.2312562 L110.497814,96.0071217 L110.497814,80.1808111 L117.193393,79.0747181 Z M63.9413551,26.6314837 L63.4910485,26.5833927 C63.6396934,26.5899505 63.7970821,26.618368 63.9413551,26.6314837 Z"/>
    <path fill="#EFB7B9" d="M101.500425,89.3508902 C99.3144708,92.4789911 91.4559644,90.8220376 91.4559644,90.8220376 L85.3658952,85.1232542 L84.5461622,84.3516123 L85.9211276,81.4311771 C85.9211276,81.4311771 86.3583185,81.5514045 87.1081009,81.7656281 C91.0450049,82.9088823 103.345371,86.7211869 101.500425,89.3508902 Z"/>
    <path fill="#000" d="M87.103729,81.7656281 C86.8348566,82.7012166 86.0981899,84.1024135 85.3658952,85.1232542 L84.5461622,84.3516123 L85.9211276,81.4311771 C85.9211276,81.4311771 86.3626904,81.5514045 87.103729,81.7656281 Z" opacity=".1"/>
    <path fill="#DCE6F2" d="M66.2169337,48.8320376 C66.2169337,48.8320376 60.6034026,51.3218398 60.8788328,57.4359545 C61.0770148,61.3749568 61.5061998,65.2989334 62.1641741,69.1876459 C62.1641741,69.1876459 61.016548,78.3883284 65.7950445,80.760089 C70.573541,83.1318497 74.995727,85.0817211 74.995727,85.0817211 C74.995727,85.0817211 82.4716914,85.8861523 83.4007221,86.2184174 C84.3297527,86.5506825 87.2327003,81.4705242 86.6971414,80.6792087 C86.1615826,79.8878932 79.2998714,78.2287537 78.4254896,76.9084372 C77.5511078,75.5881207 75.5290999,74.7727596 75.5290999,74.7727596 C75.5290999,74.7727596 73.4415134,73.5092779 73.2994263,72.3682097 C73.1573393,71.2271414 73.7081998,70.3768051 73.8481009,69.8762216 C73.988002,69.375638 74.3421266,64.5424926 74.3421266,64.5424926 C74.3421266,64.5424926 76.6985856,47.3390307 66.2169337,48.8320376 Z"/>
    <path fill="#000" d="M69.9221266 68.9362611C69.9221266 68.9362611 62.2210089 70.2259743 62.9664194 72.9212562 62.9664194 72.9212562 65.7622552 70.0117507 69.9221266 68.9362611zM69.9811474 70.0270524C69.9811474 70.0270524 65.7469535 73.4830465 66.5754303 73.6601088 67.403907 73.8371711 69.9811474 70.0270524 69.9811474 70.0270524zM72.016271 71.2315134C72.016271 71.2315134 70.8817606 73.555183 71.5790801 73.3977943 72.2763996 73.2404055 72.016271 71.2315134 72.016271 71.2315134z" opacity=".1"/>
    <path fill="#000" d="M87.3879031,82.0126409 L86.9201088,81.8792977 C87.053452,81.4421068 87.0906133,81.0879822 86.9813155,80.9240356 C86.4457567,80.1327201 79.5884174,78.4757666 78.7162216,77.1532641 C77.8440257,75.8307616 75.8198318,75.0175865 75.8198318,75.0175865 C75.8198318,75.0175865 73.7322453,73.7541048 73.5901583,72.6130366 C73.4480712,71.4719683 73.9989318,70.621632 74.1388328,70.1210485 C74.2787339,69.6204649 74.6328586,64.7851335 74.6328586,64.7851335 C74.6328586,64.7851335 76.9827596,47.5838576 66.5011078,49.0768645 C66.5011078,49.0768645 60.8875767,51.5688526 61.160821,57.6829674 C61.3590782,61.6220646 61.7889973,65.5460794 62.4483482,69.4346588 C62.4483482,69.4346588 61.3007221,78.6353412 66.0792186,81.0071019 C70.8577151,83.3788625 75.2799011,85.3287339 75.2799011,85.3287339 C75.2799011,85.3287339 82.7536795,86.1309792 83.6848961,86.4654303 C84.0368348,86.5922156 84.6729476,85.9386152 85.2959446,85.0401879 L85.6500692,85.3702671 L91.7401385,91.0668645 C91.7401385,91.0668645 99.5986449,92.726004 101.784599,89.5979031 C103.631731,86.9660138 91.3335509,83.1537092 87.3879031,82.0126409 Z" opacity=".1"/>
    <path fill="#965D7B" d="M62.986093,25.8838872 C62.7720959,25.9257201 62.5671324,26.0048937 62.3805836,26.1177844 C62.1619881,26.2992186 62.1619881,26.6096241 62.1073393,26.8806825 C62.0431427,27.2577443 61.8936037,27.6151424 61.6701484,27.9255687 C61.9188917,27.9438173 62.1684067,27.9026061 62.3980712,27.8053412 C62.3606553,28.104536 62.2872593,28.3981202 62.1794758,28.679723 C62.4576789,28.6867997 62.7142431,28.5302955 62.8352621,28.2796934 C62.9509263,28.0333685 63.0424358,27.7764097 63.1085064,27.5124233 C63.129039,27.4334667 63.1646704,27.3592345 63.2134322,27.2938279 C63.4145401,27.0555589 63.7883383,27.1626706 64.0987438,27.193274 C64.6248019,27.2376297 65.1335567,26.9932936 65.4278042,26.5549753 C65.7578833,26.0543917 65.7775569,24.7734224 64.9906133,24.6378932 C64.1686944,24.502364 63.657181,25.6346884 62.986093,25.8838872 Z"/>
    <g fill="#000" opacity=".1" transform="translate(61.644 26.013)">
      <path d="M.798774137.37379822C.823230658.266686449.839535006.15520277.869426311.048090999.611274137.229525223.59768718.537744807.529752398.81098912.495524539.968643481.441816175 1.12315516.369426311 1.27222552.583389621.997890529.729196482.692783908.798774137.37379822zM.784757666 2.17939664C.893611767 1.89813225.96704114 1.60441476 1.00335312 1.30501484.784482192 1.39713994.547517795 1.43825364.310405539 1.42524233.241385464 1.57898389.157171995 1.72544209.0590207715 1.86243323.306888719 1.88161295.555744887 1.84113635.784757666 1.74439169.74844569 2.04379161.675016317 2.3375091.566162216 2.61877349.844216439 2.62529415 1.1005033 2.46895916 1.22194857 2.21874382 1.27640852 2.11938607 1.32036505 2.01462301 1.35310584 1.90615232 1.2227573 2.08832391 1.00844067 2.19136076.784757666 2.17939664zM2.70402572.692947577C2.39362018.662344214 2.017636.555232443 1.81652819.793501484 1.76865378.859441111 1.73310586.933499262 1.71160237 1.01209693 1.69192878 1.06893175 1.67444115 1.12795252 1.65913947 1.18697329 1.86680514 1.02302671 2.20344214 1.11046489 2.48543027 1.13888229 3.0112263 1.18181802 3.51929858.937809626 3.8144906.500583581 3.88074713.394438593 3.93015312.27866636 3.96094955.157388724 3.65695937.533628072 3.18595373.734317433 2.70402572.692947577z"/>
    </g>
    <polygon fill="#DCE6F2" points="69.566 43.938 72.899 47.947 72.464 51.993 68.436 45.686"/>
    <polygon fill="#000" points="72.897 47.947 72.488 51.752 72.462 51.993 68.827 46.301 68.436 45.686 68.549 45.509 69.564 43.938 69.789 44.209" opacity=".1"/>
    <path fill="#EFB7B9" d="M74.6284866,38.5099604 C73.5005341,38.8334817 72.4228586,39.9439466 71.4850841,41.2926805 C70.8512442,42.2232644 70.284381,43.1977431 69.7887834,44.2087438 C69.4805638,44.825183 69.2095054,45.4175767 68.9843521,45.9334619 L68.8269634,46.3007023 C68.4466073,47.1991296 68.2345697,47.8002671 68.2345697,47.8002671 C68.2345697,47.8002671 59.6000495,41.3079822 60.966271,40.8707913 C61.4253215,40.7243323 62.0286449,39.7406528 62.6254105,38.5012166 L62.6997329,38.3438279 C63.0779031,37.5481405 63.4495153,36.6606429 63.7795945,35.8256083 C64.4550544,34.109634 64.955638,32.6188131 64.955638,32.6188131 C64.955638,32.6188131 78.071365,37.5262809 74.6284866,38.5099604 Z"/>
    <path fill="#444053" d="M79.7938971,32.2537587 C79.7938971,32.2537587 81.7874876,35.8605836 84.4652819,35.3687438 C87.1430762,34.8769041 86.0413551,33.4319881 86.0413551,33.4319881 L79.7938971,32.2537587 Z"/>
    <path fill="#A36468" d="M75.9313155,157.10455 C74.1650643,157.911167 70.1713254,157.10455 70.1713254,157.10455 L68.4881405,156.999624 C66.302186,156.859723 62.6428981,156.62364 61.3488131,156.518714 C59.4601484,156.363511 59.9235707,155.589683 59.9235707,155.589683 L59.9235707,150.913927 L69.087092,148.592443 C69.087092,148.592443 72.7092186,149.831879 73.7016419,150.913927 C74.6437883,151.945697 75.1946489,151.152196 76.8756479,151.449486 C76.9587141,151.464787 77.0461523,151.482275 77.1379624,151.504135 C78.7337092,151.869189 79.5993472,152.013462 80.1108605,153.335964 C80.2136486,153.61381 80.2962017,153.898728 80.3578734,154.188487 C80.8300396,156.317606 77.6953808,156.302305 75.9313155,157.10455 Z"/>
    <path fill="#000" d="M80.1108605,153.335964 C79.7825038,153.541138 79.4373444,153.718105 79.07909,153.864965 C77.876815,154.41364 76.7335608,155.082542 75.5181701,155.600613 C74.3027794,156.118684 72.9933927,156.488111 71.6774481,156.389743 C70.9888724,156.339466 70.2849951,156.171147 69.6270227,156.367883 C69.220108,156.524998 68.8368558,156.737589 68.4881405,156.999624 C66.302186,156.859723 62.6428981,156.62364 61.3488131,156.518714 C59.4601484,156.363511 59.9235707,155.589683 59.9235707,155.589683 L59.9235707,155.043195 C59.9913353,155.043195 60.0678437,155.023521 60.1552819,155.016963 C60.6076581,155.009733 61.0581449,155.076937 61.4887141,155.215885 C62.4374184,155.473828 63.3817507,155.727399 64.330455,155.980969 C64.4881524,155.385896 64.8832985,154.881689 65.4234322,154.58633 C65.9649232,154.298882 66.572669,154.159387 67.1853116,154.181929 C68.656459,154.201602 70.048912,154.898922 71.5178734,154.968872 C71.9285592,155.006633 72.3420225,154.937346 72.7179624,154.767765 C72.9190702,154.667211 73.0961325,154.520752 73.2928684,154.409268 C73.6077225,154.256959 73.9403804,154.144605 74.2831058,154.074817 C75.2464069,153.835027 76.1922104,153.529741 77.1139169,153.161088 C77.3762315,153.058348 77.6822651,152.872542 77.6472898,152.59274 C77.6013848,152.221128 77.0177349,152.177409 76.8647181,151.8364 C76.809985,151.711741 76.8164502,151.568699 76.8822057,151.449486 C76.965272,151.464787 77.0527102,151.482275 77.1445203,151.504135 C78.7337092,151.869189 79.5993472,152.013462 80.1108605,153.335964 Z" opacity=".1"/>
    <path fill="#A36468" d="M74.0645104,167.334817 C71.9878536,168.283521 67.2880514,167.334817 67.2880514,167.334817 L65.3097626,167.218961 C62.7478239,167.055015 58.4327498,166.781771 56.9091395,166.652799 C54.6860237,166.469179 55.2325124,165.559822 55.2325124,165.559822 L55.2325124,160.049031 L66.0158259,157.316588 C66.0158259,157.316588 70.2784372,158.774619 71.4457369,160.049031 C72.5540158,161.262235 73.1945005,160.328833 75.1815331,160.678586 C75.2799011,160.696073 75.3826409,160.717933 75.4897527,160.741978 C77.3674876,161.179169 78.3861424,161.343116 78.9872799,162.899515 C79.1089858,163.226278 79.2061657,163.561658 79.2780119,163.902868 C79.8201286,166.407972 76.1411672,166.388299 74.0645104,167.334817 Z"/>
    <path fill="#000" d="M78.982908,162.899515 C78.5966496,163.14076 78.1908235,163.349157 77.7697033,163.522512 C76.3553907,164.167369 75.0088427,164.954313 73.5792285,165.564194 C72.1496142,166.174075 70.6085163,166.606894 69.0586746,166.493225 C68.2498714,166.434204 67.4213947,166.23091 66.6541246,166.466993 C66.1733632,166.654226 65.7209236,166.907298 65.3097626,167.218961 C62.7478239,167.055015 58.4327498,166.781771 56.9091395,166.652799 C54.6860237,166.469179 55.2325124,165.559822 55.2325124,165.559822 L55.2325124,164.917151 C55.3230225,164.902371 55.4142194,164.892157 55.5057567,164.886548 C56.0382867,164.876821 56.5687175,164.955869 57.075272,165.120445 L60.4175964,166.021058 C60.6057646,165.318975 61.0745644,164.725267 61.7138675,164.379407 C62.3509962,164.039763 63.0668596,163.875319 63.7883383,163.902868 C65.5196142,163.926914 67.1568942,164.746647 68.8859842,164.829713 C69.3675248,164.873639 69.8522748,164.793098 70.2937389,164.595816 C70.5320079,164.475589 70.7309298,164.302898 70.9713848,164.173927 C71.3410846,163.992884 71.7327312,163.86062 72.1364985,163.780455 C73.2638031,163.495987 74.3708927,163.136694 75.4504055,162.704965 C75.7586251,162.582552 76.1193076,162.363956 76.0777745,162.036063 C76.0231256,161.598872 75.3367359,161.546409 75.1553017,161.144194 C75.0933544,160.997145 75.101393,160.829943 75.1771612,160.689515 C75.2755292,160.707003 75.378269,160.728863 75.4853808,160.752908 C77.3631157,161.172611 78.3817705,161.343116 78.982908,162.899515 Z" opacity=".1"/>
    <path fill="#444053" d="M69.3647082 129.51999L68.7810584 143.254342C68.7810584 143.254342 67.9066766 146.058922 68.3810287 146.861167 68.8553808 147.663412 69.6554402 148.463472 69.3647082 148.937824 69.0739763 149.412176 65.5764491 154.540425 64.4463106 152.573066 63.3161721 150.605707 62.2013353 142.080485 62.2013353 142.080485L63.2440356 131.550742 69.3647082 129.51999zM71.8960435 95.3010584L73.5180218 97.4695252 73.5180218 116.329941C73.5180218 116.329941 73.9923739 121.357636 73.5180218 122.395964 73.0436696 123.434293 70.6391197 125.51095 70.6391197 125.51095L68.6171118 115.127666 69.0543027 104.143244 71.8960435 95.3010584z"/>
    <path fill="#000" d="M69.3647082 129.51999L68.7810584 143.254342C68.7810584 143.254342 67.9066766 146.058922 68.3810287 146.861167 68.8553808 147.663412 69.6554402 148.463472 69.3647082 148.937824 69.0739763 149.412176 65.5764491 154.540425 64.4463106 152.573066 63.3161721 150.605707 62.2013353 142.080485 62.2013353 142.080485L63.2440356 131.550742 69.3647082 129.51999zM71.8960435 95.3010584L73.5180218 97.4695252 73.5180218 116.329941C73.5180218 116.329941 73.9923739 121.357636 73.5180218 122.395964 73.0436696 123.434293 70.6391197 125.51095 70.6391197 125.51095L68.6171118 115.127666 69.0543027 104.143244 71.8960435 95.3010584z" opacity=".1"/>
    <path fill="#444053" d="M73.5180218,87.2567458 L73.5180218,97.4585955 L71.6971217,105.400168 C71.6971217,105.400168 71.1134718,124.564431 71.6227992,126.894659 C72.1321266,129.224886 69.8740356,131.413027 69.8740356,131.413027 C69.8740356,131.413027 68.5624629,131.559486 68.5624629,132.57814 C68.5624629,133.596795 66.3765084,136.512859 66.3765084,136.512859 L66.4486449,142.19634 C66.4486449,142.19634 67.3973492,152.835381 65.9393175,154.874876 C64.4812859,156.914372 66.4486449,157.20729 66.4486449,157.20729 C64.6277448,163.181503 55.8839268,161.797794 55.0947972,161.142008 C54.3056677,160.486222 55.0947972,147.58909 55.0947972,147.58909 C55.0947972,147.58909 57.0490406,127.9155 58.5792087,127.041118 C60.1093769,126.166736 58.6535312,125.073759 59.1628586,123.762186 C59.672186,122.450613 58.6535312,118.88095 58.6535312,118.88095 C58.6535312,118.88095 58.2163403,114.653314 57.123363,112.613818 C56.0303858,110.574322 56.1746588,104.962977 56.1746588,104.962977 C56.1746588,104.962977 53.1143225,100.8818 52.2049654,99.2794955 C51.2956083,97.6771909 50.7097725,93.5238773 50.928368,90.3892186 C51.0770129,88.2710287 52.1896637,85.1866469 52.895727,83.4116518 C53.23455,82.5613155 53.4793769,82.010455 53.4793769,82.010455 L53.6870425,82.0651039 L65.626726,85.1910188 L73.5180218,87.2567458 Z"/>
    <path fill="#000" d="M74.6284866,38.5099604 C73.5005341,38.8334817 72.4228586,39.9439466 71.4850841,41.2926805 L71.2402572,41.2926805 C68.4423627,41.294659 65.8572621,39.7994701 64.4637982,37.3732641 C64.1777084,36.879365 63.9474938,36.3551504 63.7774085,35.8103066 C64.4528684,34.0943323 64.953452,32.6035114 64.953452,32.6035114 C64.953452,32.6035114 78.071365,37.5262809 74.6284866,38.5099604 Z" opacity=".1"/>
    <path fill="#EFB7B9" d="M79.0550445,33.0450742 C79.0603534,36.3228061 77.019662,39.2555581 73.9444121,40.3897506 C70.8691622,41.523943 67.4129078,40.6185367 65.2886955,38.1222841 C63.1644832,35.6260316 62.823752,32.069438 64.4353808,29.2152819 C64.6722818,28.7920996 64.9489621,28.3924502 65.2616716,28.0217507 C65.7771579,27.4076227 66.383035,26.8754533 67.0585262,26.4434916 C69.3795115,24.9685683 72.3048982,24.8221141 74.7615878,26.0578519 C77.2182774,27.2935896 78.8446499,29.7296209 79.0441147,32.4723541 C79.0484866,32.6647181 79.0550445,32.8548961 79.0550445,33.0450742 Z"/>
    <path fill="#000" d="M72.4884372,51.7524728 L72.4622057,51.9929278 L68.8269634,46.3094461 C68.4466073,47.2078734 68.2345697,47.8090109 68.2345697,47.8090109 C68.2345697,47.8090109 59.6000495,41.3079822 60.966271,40.8707913 C61.4253215,40.7243323 62.0286449,39.7406528 62.6254105,38.5012166 L62.6997329,38.3438279 C63.3336597,40.2324926 67.0169931,44.007636 68.5493472,45.5203165 C68.7264095,45.6951929 68.8728684,45.8394659 68.9865381,45.9443917 L69.2204352,46.1629871 L69.3428487,46.2854006 C69.9002671,46.8603066 72.2523541,49.3960138 72.4884372,51.7524728 Z" opacity=".1"/>
    <path fill="#DCE6F2" d="M75.2055786,71.0369634 L74.8077349,83.8400989 L74.7377844,86.1200495 C74.7377844,86.1200495 70.0248665,85.6828586 65.626726,85.2019486 C62.0854797,84.8150346 58.7475272,84.3975173 58.2338279,84.1526904 C57.5780415,83.8444708 56.1724728,83.6062018 55.0641939,83.4553709 C54.2072997,83.3395153 53.5340257,83.2783086 53.5340257,83.2783086 C53.5340257,83.2783086 53.2826409,83.3526311 52.895727,83.4225816 C52.0519486,83.5755984 50.5698714,83.7001978 49.7064194,82.9504154 C48.6025124,81.9907814 51.503274,78.504184 52.2268249,77.6669634 L52.3863996,77.4855292 L52.1131553,74.9607517 L51.4027201,68.413818 C51.4027201,68.413818 50.9655292,64.6430465 50.3097428,62.6210386 C50.1344194,62.046154 50.007914,61.4575017 49.9315727,60.8613452 C49.6879155,59.0145873 49.8127342,57.1378486 50.2988131,55.3396241 C50.5064895,54.5755288 50.6382849,53.7928104 50.6922849,53.0028388 C50.8015826,50.9808309 56.9769041,43.1660435 58.5070722,42.4556083 C59.1954109,42.1346156 59.7492987,41.5822749 60.0722156,40.8948368 C60.1788224,40.6786887 60.2588292,40.4504125 60.3104847,40.2150049 C60.966271,37.3732641 62.6254105,38.5012166 62.6254105,38.5012166 C63.0254402,40.7243323 69.2182493,46.6089219 69.2182493,46.6089219 L69.3406627,46.7313353 C69.9549159,47.3608902 72.691731,50.3163007 72.497181,52.8388922 C72.4583056,53.7777804 72.5985164,54.7154868 72.9103264,55.6019387 C74.1699876,59.5682929 74.8941145,63.6851564 75.0634916,67.8432839 L75.2055786,71.0369634 Z"/>
    <path fill="#000" d="M66.4311573 55.8336499C66.4311573 55.8336499 64.9009891 59.5497725 63.753363 60.15091 62.6057369 60.7520475 66.9776459 61.4187636 66.4311573 55.8336499zM67.5787834 62.7740554C67.5787834 62.7740554 64.0812562 63.2112463 64.0812562 63.8670326 64.0812562 64.522819 67.5787834 62.7740554 67.5787834 62.7740554zM71.2402572 67.0366667C71.2402572 67.0366667 66.157913 77.8571414 64.7370425 78.1850346 63.3161721 78.5129278 71.2402572 67.0366667 71.2402572 67.0366667zM69.1220673 47.1575964L64.9184768 48.9850544 59.8448764 41.3210979C59.9514831 41.1049499 60.0314899 40.8766736 60.0831454 40.6412661 60.7389318 37.7995252 62.3980712 38.9274777 62.3980712 38.9274777 62.7981009 41.1505935 68.99091 47.035183 68.99091 47.035183L69.1220673 47.1575964z" opacity=".1"/>
    <path fill="#DCE6F2" d="M69.3406627,46.7204055 L65.1370722,48.5478635 L60.0634718,40.883907 C60.1700786,40.667759 60.2500854,40.4394827 60.3017409,40.2040752 C60.9575272,37.3623343 62.6166667,38.4902868 62.6166667,38.4902868 C63.0166963,40.7134026 69.2095054,46.5979921 69.2095054,46.5979921 L69.3406627,46.7204055 Z"/>
    <path fill="#000" d="M74.7377844 86.1200495C74.7377844 86.1200495 70.0248665 85.6828586 65.626726 85.2019486L73.5180218 87.2676756 73.5180218 89.6722255C73.1726409 89.984817 72.8731652 90.1465776 72.6786152 90.0635114 71.7692582 89.6809693 64.3479426 88.4786944 64.3479426 88.4786944 64.3479426 88.4786944 60.0372404 86.2927399 55.3855292 83.6695945 55.2726184 83.6070432 55.1631618 83.5384505 55.057636 83.4641147 54.515246 83.0958552 54.0478835 82.6277509 53.6804847 82.0847774 52.8214045 80.8409693 52.4017013 79.2430366 52.2202671 77.6757072 52.1182677 76.7774722 52.080282 75.8731202 52.1065974 74.9694955 52.1291297 73.9448737 52.2226209 72.9230439 52.3863996 71.9113452 51.9365264 67.9928905 51.7175528 64.0513642 51.7306133 60.1071909 51.7852621 53.9865183 57.5233927 51.8005638 57.5233927 51.8005638 68.0706231 50.8715331 64.8004352 67.9219782 64.8004352 67.9219782 64.8004352 67.9219782 64.1905539 72.7310781 64.0244214 73.2229179 63.8582888 73.7147577 63.2615232 74.5344906 63.3424036 75.6821167 63.4232839 76.8297428 65.4387339 78.2025223 65.4387339 78.2025223 65.4387339 78.2025223 67.406093 79.1249951 68.2170821 80.4912166 68.8072898 81.4989416 72.641454 82.8651632 74.8077349 83.8400989L74.7377844 86.1200495zM78.2702868 28.1922552C78.2743122 28.5523066 78.1997113 28.9088987 78.0516914 29.2371414 77.9396285 29.5049914 77.8096337 29.7649809 77.6625915 30.0153412 77.4325259 30.4758748 77.1059727 30.8814568 76.7051434 31.2045005 76.2001879 31.565183 75.5618892 31.6657369 74.9563798 31.8121958 74.3508704 31.9586548 73.7213155 32.1925519 73.3759347 32.7084372 73.1887526 33.0400725 73.0635659 33.4030398 73.0065084 33.7795549 72.948601 34.1557458 72.7983964 34.5117307 72.5693175 34.8156973 72.3239753 35.1209486 71.9032415 35.221637 71.5462908 35.0605242 71.3634735 34.9372762 71.2248409 34.7588154 71.150633 34.5511968 70.9014342 33.9894065 70.8380415 33.3664095 70.7374876 32.7609001 70.6369337 32.1553907 70.4948467 31.5323937 70.1232344 31.0449258 69.7516222 30.557458 69.0936499 30.2361227 68.51 30.4263007 68.1152726 30.5782613 67.7995277 30.8845339 67.6356182 31.274451 67.4740859 31.6607731 67.3631412 32.0663456 67.3055391 32.4810979 67.0344807 33.9646324 66.7146027 35.439423 66.345905 36.9054698 66.3346565 36.9655667 66.3099993 37.022353 66.2737685 37.0716024 66.2156541 37.1295262 66.1372192 37.1624689 66.0551731 37.1634125 65.5655193 37.2289911 65.0955391 36.8857962 64.6015134 36.9229575 64.5506074 36.9263481 64.5001193 36.9343969 64.4506825 36.947003 62.8145015 34.1034171 63.1297564 30.540426 65.2398121 28.0283086L65.2791592 28.0173788C65.6077892 27.9007186 65.9064306 27.7125745 66.153541 27.4665183 66.4690959 27.1507439 66.7613237 26.8124902 67.0279228 26.4544214L67.2027992 26.2358259C67.7052538 25.6305194 68.2775826 25.086807 68.9078437 24.6160336 69.0798852 24.4750876 69.2772333 24.3682525 69.4893076 24.3012562 69.6707991 24.265899 69.8567995 24.2599942 70.0401682 24.2837685 70.7950847 24.3743931 71.5561656 24.4029062 72.3157468 24.3690208 72.8450195 24.2858219 73.3784707 24.23182 73.9136795 24.2072601 75.2973887 24.2466073 76.4778042 25.223729 77.352186 26.2948467 77.8221662 26.8435213 78.2418694 27.4752621 78.2702868 28.1922552z" opacity=".1"/>
    <path fill="#965D7B" d="M63.4145401,29.4229476 C63.1106924,29.9213452 62.5620178,30.2601682 62.3565381,30.8066568 C62.0548764,31.6001583 62.5642038,32.5882097 62.0964095,33.296459 C61.9412067,33.534728 61.68545,33.7117903 61.5980119,33.9850346 C61.449367,34.446271 61.8559545,34.9381108 61.7510287,35.4124629 C61.6461029,35.886815 61.0209199,36.2868447 61.1870524,36.7502671 C61.2852287,36.9523743 61.4574407,37.1089306 61.6679624,37.187458 C61.9991897,37.377466 62.3804262,37.4621006 62.7609397,37.4300989 C63.3577052,37.331731 63.801454,36.7458952 64.4069634,36.7021761 C64.8988032,36.6672008 65.3687834,37.0082097 65.8584372,36.944817 C65.9405015,36.9419616 66.0185076,36.908419 66.0770326,36.850821 C66.11418,36.802104 66.1389354,36.7450915 66.1491691,36.6846884 C66.5164095,35.2200989 66.8370162,33.7453083 67.1109891,32.2603165 C67.166814,31.845445 67.2770606,31.4397377 67.4388823,31.0536696 C67.60406,30.6646204 67.9193656,30.3587739 68.3132641,30.2055193 C68.8969139,30.0175272 69.5527003,30.3366766 69.9264985,30.8241444 C70.3002967,31.3116123 70.4423838,31.9346093 70.5429377,32.5401187 C70.6434916,33.1456281 70.7068843,33.7686251 70.9538971,34.3304154 C71.028953,34.5387729 71.1682697,34.7178943 71.3517409,34.8419288 C71.679634,35.0321068 72.1211968,34.881276 72.3725816,34.5971019 C72.6028771,34.2930145 72.7531965,33.9360059 72.8097725,33.5587735 C72.8668013,33.1829412 72.9919979,32.8206861 73.1791988,32.4898417 C73.5245796,31.9739565 74.1563205,31.7400593 74.7596439,31.5936004 C75.3629674,31.4471414 75.9990801,31.3444016 76.5084075,30.9837191 C76.908701,30.6610165 77.2351823,30.2562691 77.4658556,29.7967458 C77.7893769,29.2327695 78.0910386,28.6207023 78.0648071,27.9714738 C78.0363897,27.2632245 77.6166864,26.6314837 77.1685658,26.0806231 C76.294184,25.0095054 75.1115826,24.0323838 73.7278734,23.9952226 C73.192507,24.0176089 72.6589321,24.0716234 72.1299407,24.1569832 C71.3703026,24.1911435 70.6091389,24.1618961 69.854362,24.069545 C69.6708287,24.0475915 69.4850011,24.0542282 69.3035015,24.0892186 C69.0911802,24.1540614 68.8941466,24.2611287 68.7242235,24.403996 C68.0933469,24.873986 67.5202875,25.4169615 67.0169931,26.0216024 C66.6924796,26.4518858 66.3405383,26.8607802 65.963363,27.2457369 C65.7161517,27.4921842 65.4175885,27.6810254 65.0889812,27.7987834 C64.8703858,27.8599901 64.6517903,27.816271 64.4441246,27.8840356 C63.7992681,28.0873294 63.7140158,28.9289219 63.4145401,29.4229476 Z"/>
    <path fill="#000" d="M84.4652819,35.3665579 C82.7165183,35.6878932 81.2672305,34.2735806 80.4649852,33.2418101 C80.2185913,32.9284614 79.9943512,32.5983099 79.7938971,32.2537587 L85.7965282,33.3860831 L86.0391691,33.4319881 C86.0391691,33.4319881 87.1430762,34.8769041 84.4652819,35.3665579 Z" opacity=".1"/>
    <g fill="#000" opacity=".1" transform="translate(60.988 27.543)">
      <path d="M1.00270803 7.24425321C1.05866335 6.95836988.959296442 6.67075183.712708029 6.40484669.712708029 6.42670623.667708029 6.44856578.652708029 6.47042532.437708029 6.76334322.727708029 7.0671909.912708029 7.37103858.952440088 7.33021651.982594547 7.28773713 1.00270803 7.24425321zM1.30038961 3.6658457C1.24894939 3.96811932 1.26234114 4.27183449 1.34038961 4.57301682 1.39165456 4.27074109 1.37826313 3.96703308 1.30038961 3.6658457zM16.4646093 1.62197824C16.2345437 2.08251176 15.9079905 2.48809382 15.5071612 2.81113749 15.0022057 3.17181998 14.366093 3.27237389 13.7583976 3.41883284 13.1507023 3.56529179 12.5233333 3.79918892 12.1779525 4.31507418 11.9910816 4.64684954 11.8659151 5.00975844 11.8085262 5.38619189 11.7515897 5.76332299 11.6013064 6.12024587 11.3713353 6.42452028 11.1199505 6.70869436 10.6783877 6.86171118 10.3504946 6.66934718 10.1670234 6.54531275 10.0277067 6.3661913 9.95265084 6.15783383 9.70563798 5.59604352 9.64005935 4.97523244 9.54169139 4.36753709 9.44332344 3.75984174 9.29686449 3.13903066 8.92525223 2.65156281 8.55363996 2.16409496 7.89566766 1.84275964 7.3120178 2.03293769 6.91770661 2.18554865 6.60218289 2.49160665 6.437636 2.88108803 6.27581429 3.26715607 6.16556774 3.6728634 6.10974283 4.08773492 5.83722717 5.57272667 5.51662051 7.04751731 5.14792285 8.51210682 5.13768912 8.57250992 5.11293369 8.62952245 5.07578635 8.67823937 5.01726134 8.73583742 4.93925526 8.76938004 4.8571909 8.77223541 4.36753709 8.83562809 3.89755687 8.49461919 3.40571711 8.52959446 2.80020772 8.57331355 2.35645895 9.15914936 1.75969337 9.25533136 1.37903891 9.28947037.997166764 9.20469475.666716123 9.01269041.514777403 8.94732034.378433442 8.85046397.266686449 8.72851632.163055794 8.87690938.133243319 9.0646474.185806133 9.23784372.282091721 9.44135871.454972704 9.59852324.666716123 9.67503462.997166764 9.86703897 1.37903891 9.95181458 1.75969337 9.91767557 2.35645895 9.82149357 2.80020772 9.23565776 3.40571711 9.19193867 3.89755687 9.1569634 4.36753709 9.4979723 4.8571909 9.43457962 4.93925526 9.43172425 5.01726134 9.39818163 5.07578635 9.34058358 5.11293369 9.29186666 5.13768912 9.23485413 5.14792285 9.17445104 5.5151632 7.71714804 5.83576986 6.2423574 6.10974283 4.75007913 6.16556774 4.33520761 6.27581429 3.92950029 6.437636 3.54343225 6.60218289 3.15395086 6.91770661 2.84789286 7.3120178 2.6952819 7.89566766 2.50510386 8.55145401 2.82643917 8.92525223 3.31390702 9.29905045 3.80137488 9.44113749 4.42437191 9.54169139 5.02988131 9.6422453 5.6353907 9.70563798 6.25838773 9.95265084 6.82017804 10.0277067 7.02853552 10.1670234 7.20765696 10.3504946 7.33169139 10.6783877 7.52186944 11.1199505 7.37103858 11.3713353 7.08686449 11.6013064 6.78259008 11.7515897 6.42566721 11.8085262 6.0485361 11.8659151 5.67210265 11.9910816 5.30919375 12.1779525 4.9774184 12.5233333 4.46153314 13.1550742 4.22982196 13.7583976 4.08117705 14.3617211 3.93253215 14.9978338 3.83416419 15.5071612 3.4734817 15.9079905 3.15043804 16.2345437 2.74485598 16.4646093 2.28432245 16.7881306 1.72253215 17.0897923 1.11046489 17.0635608.4612364 17.0592593.3777624 17.050503.294577678 17.0373294.212037587 16.9318628.712359549 16.7379128 1.1898319 16.4646093 1.62197824z"/>
    </g>
    <path fill="#000" d="M78.0604352 29.2305836C78.6210094 30.2272712 78.9532566 31.3360065 79.033185 32.476726 77.0854995 31.3837488 75.2536696 30.1836597 74.3290109 29.7661424 72.7179624 29.0382196 66.6934718 29.1475173 64.4288229 29.2152819 64.665724 28.7920996 64.9424043 28.3924502 65.2551137 28.0217507 65.772592 27.4071123 66.3807093 26.8749175 67.0585262 26.4434916 68.8726886 25.292144 71.0806992 24.9380755 73.1638961 25.464457 75.2470929 25.9908384 77.0218819 27.3512792 78.071365 29.2262117L78.0604352 29.2305836zM85.0117705 34.4397132C83.9603264 34.7632344 82.2443521 34.1380514 80.4649852 33.2418101 80.2185913 32.9284614 79.9943512 32.5983099 79.7938971 32.2537587L85.7965282 33.3860831C86.1943719 33.6571414 86.2949258 34.0440554 85.0117705 34.4397132z" opacity=".1"/>
    <path fill="#444053" d="M71.7058655,21.6518793 C71.7058655,21.6518793 65.9677349,21.3239862 64.3545005,24.4389713 L64.0943719,27.1998318 L63.657181,27.1517409 L63.5697428,29.0294758 C63.5697428,29.0294758 72.3397923,28.6469337 74.3355687,29.547547 C76.3313452,30.4481602 82.5328981,34.9862018 85.0183284,34.2211177 C87.5037587,33.4560336 84.7997329,32.7455984 84.7997329,32.7455984 C84.7997329,32.7455984 81.3787141,31.2963106 81.3787141,30.1596142 C81.3787141,29.0229179 80.5305638,23.0181009 71.7058655,21.6518793 Z"/>
    <path fill="#000" d="M60.6383778 123.998269C60.6383778 123.998269 64.2998516 127.550445 65.8846686 127.277201 65.8846686 127.277201 61.4034619 126.894659 60.6383778 123.998269zM59.8732938 125.644293C59.8732938 125.644293 60.2011869 127.471751 61.0755687 127.292502 61.9499505 127.113254 59.8732938 125.644293 59.8732938 125.644293zM65.6114243 156.186449C65.6114243 156.186449 60.4132245 160.230465 61.2897923 160.339763 62.16636 160.44906 65.6114243 156.186449 65.6114243 156.186449z" opacity=".1"/>
    <polygon fill="#008DEA" points="72.565 75.925 89.397 73.186 89.397 89.121 73.404 88.284"/>
    <polygon fill="#000" points="72.565 75.925 89.397 73.186 89.397 89.121 73.404 88.284" opacity=".05"/>
    <polygon fill="#008DEA" points="89.397 73.186 109.582 74.696 108.465 88.564 89.397 89.121"/>
    <polygon fill="#000" points="89.397 73.186 109.582 74.696 108.465 88.564 89.397 89.121" opacity=".1"/>
    <polygon fill="#008DEA" points="95.603 68.322 89.397 73.186 109.582 74.696 112.881 69.719"/>
    <polygon fill="#008DEA" points="66.471 70.613 81.624 68.768 89.397 73.186 72.565 75.925"/>
    <polygon fill="#008DEA" points="93.087 77.324 93.087 99.111 85.202 98.302 81.772 97.953 80.727 97.843 77.3 97.491 72.565 97.006 72.565 75.925 89.395 77.07"/>
    <polygon fill="#008DEA" points="109.582 74.696 109.582 95.944 103.262 97.157 100.189 97.747 93.087 99.111 93.087 77.324"/>
    <polygon fill="#000" points="109.582 74.696 109.582 95.944 103.262 97.157 100.189 97.747 93.087 99.111 93.087 77.324" opacity=".05"/>
    <polygon fill="#008DEA" points="66.471 80.511 72.565 75.925 93.087 77.324 90.066 82.413"/>
    <polygon fill="#FFF" points="66.471 80.511 72.565 75.925 93.087 77.324 90.066 82.413" opacity=".1"/>
    <polygon fill="#008DEA" points="109.582 74.696 93.087 77.324 98.455 82.133 116.124 79.169"/>
    <polygon fill="#FFF" points="109.582 74.696 93.087 77.324 98.455 82.133 116.124 79.169" opacity=".1"/>
    <polygon fill="#FFF" points="103.262 97.157 100.189 97.747 100.189 93.207 103.068 92.481" opacity=".1"/>
    <polygon fill="#FFF" points="85.202 95.299 85.202 98.302 81.772 97.953 81.772 95.299" opacity=".1"/>
    <polygon fill="#FFF" points="80.727 96.245 80.727 97.843 77.3 97.491 77.3 96.245" opacity=".1"/>
    <path fill="#000" d="M91.0231454,93.7053116 C88.6732443,96.710999 80.9131058,94.6343422 80.9131058,94.6343422 L75.1465579,88.6185955 L74.3639862,87.8032344 L75.8941543,84.9614936 C75.8941543,84.9614936 76.3313452,85.1057666 77.061454,85.3593373 C80.9262216,86.7102572 93.0014342,91.1761622 91.0231454,93.7053116 Z" opacity=".1"/>
    <path fill="#EFB7B9" d="M90.80455,93.2681207 C88.4546489,96.2738081 80.6945104,94.1971513 80.6945104,94.1971513 L74.9279624,88.1814045 L74.1453907,87.3660435 L75.6755589,84.5243027 C75.6755589,84.5243027 76.1127498,84.6685757 76.8428586,84.9221464 C80.7076261,86.2730663 92.7828388,90.7389713 90.80455,93.2681207 Z"/>
    <path fill="#000" d="M76.8341147,84.9221464 C76.5149654,85.8402473 75.7039763,87.199911 74.9192186,88.1814045 L74.1366469,87.3660435 L75.666815,84.5243027 C75.666815,84.5243027 76.1061919,84.6685757 76.8341147,84.9221464 Z" opacity=".1"/>
    <path fill="#DCE6F2" d="M57.7419881,50.926182 C57.7419881,50.926182 52.0038576,53.1121365 51.9492087,59.2328091 C51.9361482,63.1769824 52.1551219,67.1185087 52.6049951,71.0369634 C52.6049951,71.0369634 50.9655292,80.1633234 55.6106825,82.7864688 C60.2558358,85.4096142 64.5730959,87.5955687 64.5730959,87.5955687 C64.5730959,87.5955687 71.9944115,88.7978437 72.9059545,89.1803858 C73.8174975,89.5629278 76.9849456,84.6445302 76.4931058,83.8247972 C76.0012661,83.0050643 69.2444807,80.9830564 68.4422354,79.6168348 C67.6399901,78.2506133 65.6638872,77.3303264 65.6638872,77.3303264 C65.6638872,77.3303264 63.6484372,75.955361 63.5675569,74.8077349 C63.4866766,73.6601088 64.0812562,72.8403759 64.2495747,72.3485361 C64.4178932,71.8566963 65.0277745,67.0475964 65.0277745,67.0475964 C65.0277745,67.0475964 68.2892186,49.9862216 57.7419881,50.926182 Z"/>
    <path fill="#000" d="M60.3651335 71.1899802C60.3651335 71.1899802 52.6049951 72.064362 53.2061325 74.7968051 53.2061325 74.7968051 56.1549852 72.0403165 60.3651335 71.1899802zM60.3651335 72.2829575C60.3651335 72.2829575 55.9604352 75.5072404 56.7692384 75.7258358 57.5780415 75.9444313 60.3651335 72.2829575 60.3651335 72.2829575zM62.3324926 73.5945302C62.3324926 73.5945302 61.0755687 75.8548071 61.786004 75.7367656 62.4964392 75.618724 62.3324926 73.5945302 62.3324926 73.5945302z" opacity=".1"/>
    <path fill="#008DEA" d="M143.129743,24.5679426 C143.129743,24.5679426 134.823116,24.0673591 135.79368,29.8951137 C135.79368,29.8951137 135.59913,30.9246983 136.532532,31.3924926 C136.532532,31.3924926 136.547834,30.9553017 137.385054,31.1061325 C137.683205,31.1563105 137.98625,31.1709859 138.287854,31.1498516 C138.696585,31.1225915 139.085116,30.9621115 139.393947,30.6929871 C139.393947,30.6929871 141.730732,29.7289812 142.640089,25.9079327 C142.640089,25.9079327 143.313363,25.0728981 143.295875,24.8586746 L141.892493,25.4598121 C141.892493,25.4598121 142.371217,26.471909 141.993046,27.3135015 C141.993046,27.3135015 141.949327,25.4969733 141.678269,25.5385064 C141.62362,25.5385064 140.950346,25.8904451 140.950346,25.8904451 C140.950346,25.8904451 141.774451,27.6523244 141.151454,28.9354797 C141.151454,28.9354797 141.387537,26.7626409 140.692404,26.0172305 L139.704352,26.5943225 C139.704352,26.5943225 140.668358,28.4152226 140.014758,29.9016716 C140.014758,29.9016716 140.183076,27.6217211 139.496686,26.7342235 L138.600445,27.431543 C138.600445,27.431543 139.507616,29.2283976 138.95457,30.461276 C138.95457,30.461276 138.882433,27.8075272 138.405895,27.6064194 C138.405895,27.6064194 137.623323,28.297181 137.505282,28.5813551 C137.505282,28.5813551 138.123907,29.8929278 137.739179,30.5727596 C137.739179,30.5727596 137.503096,28.8043225 137.301988,28.7955786 C137.301988,28.7955786 136.521602,29.9672502 136.440722,30.7629377 C136.478517,30.0211365 136.709886,29.3021603 137.11181,28.6775371 C136.662044,28.7626313 136.247091,28.977708 135.918279,29.2961622 C135.918279,29.2961622 136.038506,28.4676855 137.304174,28.395549 C137.304174,28.395549 137.95996,27.5058655 138.121721,27.4512166 C138.121721,27.4512166 136.862611,27.3462908 136.099713,27.6851137 C136.099713,27.6851137 136.770801,26.904728 138.353432,27.2479228 L139.227814,26.5265579 C139.227814,26.5265579 137.570861,26.3079624 136.866983,26.5506034 C136.866983,26.5506034 137.675786,25.8598417 139.466083,26.3626113 L140.427903,25.7877052 C140.427903,25.7877052 139.015776,25.4816716 138.174184,25.5931553 C138.174184,25.5931553 139.061682,25.1144313 140.709891,25.6325025 L141.398467,25.3242829 C141.398467,25.3242829 140.362324,25.1209891 140.060663,25.0881998 C139.759001,25.0554105 139.741513,24.9723442 139.741513,24.9723442 C140.397013,24.8632455 141.069946,24.938941 141.684827,25.1909397 C141.684827,25.1909397 143.160346,24.6597527 143.129743,24.5679426 Z"/>
    <path fill="#008DEA" d="M168.368773 53.7154599C168.368773 53.7154599 160.062146 53.2148764 161.03271 59.0426311 161.03271 59.0426311 160.83816 60.0722156 161.771563 60.5400099 161.771563 60.5400099 161.786864 60.102819 162.626271 60.2536499 162.924421 60.3038279 163.227467 60.3185032 163.52907 60.2973689 163.933 60.268083 164.316526 60.1085362 164.622047 59.8426904 164.622047 59.8426904 166.961019 58.8764985 167.870376 55.05545 167.870376 55.05545 168.541464 54.2226014 168.515232 54.0083778L167.11185 54.6073294C167.11185 54.6073294 167.590574 55.6194263 167.21459 56.4610188 167.21459 56.4610188 167.168684 54.6444906 166.899812 54.6860237 166.845163 54.6860237 166.169703 55.0379624 166.169703 55.0379624 166.169703 55.0379624 166.995994 56.8020277 166.372997 58.082997 166.372997 58.082997 166.60908 55.9101583 165.911761 55.1647478L164.934639 55.7352819C164.934639 55.7352819 165.898645 57.556182 165.245045 59.0426311 165.245045 59.0426311 165.413363 56.7626805 164.726973 55.875183L163.832918 56.5746884C163.832918 56.5746884 164.737903 58.3693571 164.187043 59.6022354 164.187043 59.6022354 164.114906 56.9484866 163.638368 56.7473788 163.638368 56.7473788 162.855796 57.4381405 162.735569 57.7223145 162.735569 57.7223145 163.35638 59.0338872 162.971652 59.7137191 162.971652 59.7137191 162.735569 57.9452819 162.534461 57.9365381 162.534461 57.9365381 161.754075 59.1082097 161.673195 59.9038971 161.712249 59.1620053 161.944328 58.4431655 162.346469 57.8184965 161.896135 57.9037982 161.480536 58.1188157 161.150752 58.4371217 161.150752 58.4371217 161.273165 57.6086449 162.538833 57.5365084 162.538833 57.5365084 163.183689 56.6468249 163.35638 56.5921761 163.35638 56.5921761 162.09727 56.4872502 161.334372 56.8260732 161.334372 56.8260732 162.00546 56.0456874 163.585905 56.3998121L164.460287 55.6784471C164.460287 55.6784471 162.801147 55.4598516 162.099456 55.7024926 162.099456 55.7024926 162.908259 55.011731 164.698556 55.5145005L165.660376 54.9395945C165.660376 54.9395945 164.246063 54.6357468 163.404471 54.7450445 163.404471 54.7450445 164.294154 54.2663205 165.942364 54.7843917L166.63094 54.4761721C166.63094 54.4761721 165.594797 54.2728783 165.29095 54.240089 164.987102 54.2072997 164.9718 54.1242334 164.9718 54.1242334 165.628018 54.0150694 166.30167 54.0907606 166.9173 54.3428289 166.9173 54.3428289 168.395005 53.80727 168.368773 53.7154599zM117.906014 48.5413056C117.906014 48.5413056 119.818724 40.4336004 113.907903 40.405183 113.907903 40.405183 112.926409 40.0379426 112.307784 40.8773492 112.307784 40.8773492 112.729674 40.9669733 112.443314 41.7670326 112.344275 42.0499425 112.278258 42.343349 112.246578 42.6414144 112.204235 43.0477425 112.295562 43.4567949 112.506706 43.8065282 112.506706 43.8065282 113.059753 46.2766568 116.66002 47.8243126 116.66002 47.8243126 117.368269 48.6287438 117.582493 48.6374876L117.23274 47.1532245C117.23274 47.1532245 116.152878 47.4527003 115.387794 46.9346291 115.387794 46.9346291 117.186835 47.1991296 117.189021 46.9346291 117.189021 46.8799802 116.970425 46.1564293 116.970425 46.1564293 116.970425 46.1564293 115.09269 46.6679426 113.934135 45.835094 113.934135 45.835094 116.034837 46.4384174 116.889545 45.880999L116.496073 44.8055094C116.496073 44.8055094 114.528714 45.4459941 113.182166 44.5475668 113.182166 44.5475668 115.40091 45.1027992 116.393333 44.5781701L115.857774 43.577003C115.857774 43.577003 113.934135 44.1628388 112.81274 43.4086845 112.81274 43.4086845 115.435885 43.7890406 115.720059 43.3562216 115.720059 43.3562216 115.173571 42.4665381 114.913442 42.3004055 114.913442 42.3004055 113.523175 42.6895054 112.911108 42.1932938 112.911108 42.1932938 114.692661 42.2610584 114.734194 42.0730663 114.734194 42.0730663 113.713353 41.1046884 112.935153 40.886093 113.660361 41.0512127 114.330094 41.402276 114.878467 41.9047478 114.870451 41.4466162 114.729167 41.0007384 114.471879 40.6215925 114.471879 40.6215925 115.267567 40.883907 115.127666 42.1517606 115.127666 42.1517606 115.89275 42.9387043 115.916795 43.1179525 115.916795 43.1179525 116.233759 41.896004 116.030465 41.0850148 116.030465 41.0850148 116.686251 41.8807023 116.067626 43.3780811L116.62723 44.3726904C116.62723 44.3726904 117.134372 42.7769436 117.005401 42.0424629 117.005401 42.0424629 117.549703 42.9561919 116.747458 44.6350049L117.15186 45.6820772C117.15186 45.6820772 117.69179 44.3399011 117.726766 43.4961227 117.726766 43.4961227 118.048101 44.4535707 117.254599 45.9902967L117.442591 46.7204055C117.442591 46.7204055 117.818576 45.7345401 117.901642 45.4416222 117.984708 45.1487043 118.06996 45.1465183 118.06996 45.1465183 118.066629 45.8115466 117.878154 46.4625062 117.525658 47.0264392 117.525658 47.0264392 117.812018 48.5522354 117.906014 48.5413056zM99.7145005 51.3043521C99.7145005 51.3043521 93.0429674 46.313818 90.658091 51.7196835 90.658091 51.7196835 89.9301682 52.4738378 90.4526113 53.376637 90.4526113 53.376637 90.7018101 53.0246983 91.3269931 53.6083482 91.5484347 53.8143608 91.7935138 53.9934007 92.0571019 54.1417211 92.414126 54.3405193 92.8263083 54.4172757 93.2309594 54.3603165 93.2309594 54.3603165 95.7142038 54.8390406 98.5734322 52.1481306 98.5734322 52.1481306 99.594273 51.8202374 99.690455 51.6278734L98.1843323 51.3633729C98.1843323 51.3633729 98.0269436 52.4716518 97.2509298 52.9678635 97.2509298 52.9678635 98.2105638 51.4245796 97.961365 51.3130959 97.911088 51.2890504 97.1591197 51.2037982 97.1591197 51.2037982 97.1591197 51.2037982 96.8793175 53.1318101 95.655183 53.8597329 95.655183 53.8597329 97.047636 52.174362 96.8749456 51.1688229L95.7316914 51.1076162C95.7316914 51.1076162 95.5371414 53.1602275 94.1731058 54.0433531 94.1731058 54.0433531 95.5655589 52.2311968 95.4846785 51.1119881L94.3523541 51.2037982C94.3523541 51.2037982 94.1228289 53.1995747 92.9839466 53.9253116 92.9839466 53.9253116 94.3807715 51.6694065 94.0944115 51.2409594 94.0944115 51.2409594 93.060455 51.3874184 92.8046983 51.5579228 92.8046983 51.5579228 92.6057765 52.9875371 91.906271 53.3504055 91.906271 53.3504055 92.6822849 51.743729 92.5248961 51.6322453 92.5248961 51.6322453 91.2286251 52.1809199 90.7192977 52.8061029 91.159888 52.2075072 91.7491235 51.7343104 92.4287141 51.4333234 92.0058742 51.2575802 91.5409608 51.2089618 91.09091 51.2934224 91.09091 51.2934224 91.6461424 50.6682394 92.7434916 51.3043521 92.7434916 51.3043521 93.7708902 50.9174382 93.9457666 50.9655292 93.9457666 50.9655292 92.9511573 50.1851434 92.1270524 50.0496142 92.1270524 50.0496142 93.1194758 49.7654402 94.2452423 50.923996L95.3797527 50.8081405C95.3797527 50.8081405 94.118457 49.7151632 93.394906 49.531543 93.394906 49.531543 94.4507221 49.3981998 95.6682987 50.8015826L96.7875074 50.8518595C96.7875074 50.8518595 95.7754105 49.820089 95.0125124 49.4484768 95.0125124 49.4484768 96.0158655 49.5359149 97.1088427 50.875905L97.8542532 50.9961325C97.8542532 50.9961325 97.1000989 50.2572799 96.8640158 50.0649159 96.6279327 49.8725519 96.6607221 49.7916716 96.6607221 49.7916716 97.2688518 50.0609667 97.790261 50.4938347 98.1668447 51.0420376 98.1668447 51.0420376 99.6860831 51.3939763 99.7145005 51.3043521zM121.925984 4.93807122C121.925984 4.93807122 115.254451-.0546488625 112.869575 5.35340257 112.869575 5.35340257 112.141652 6.10755687 112.664095 7.01035608 112.664095 7.01035608 112.913294 6.65841741 113.538477 7.24206726 113.761078 7.44701584 114.006839 7.62528411 114.270772 7.7732542 114.627741 7.97220502 115.039974 8.04897109 115.444629 7.99184965 115.444629 7.99184965 117.927873 8.47057369 120.787102 5.77747774 120.787102 5.77747774 121.807943 5.45177052 121.901939 5.25722057L120.395816 4.99709199C120.395816 4.99709199 120.240613 6.10537092 119.462413 6.60158259 119.462413 6.60158259 120.424233 5.05829871 120.175035 4.94681503 120.124758 4.92276954 119.372789 4.83751731 119.372789 4.83751731 119.372789 4.83751731 119.084243 6.76990109 117.860109 7.49345203 117.860109 7.49345203 119.250376 5.80808111 119.079871 4.80254204L117.936617 4.74133531C117.936617 4.74133531 117.739881 6.79394659 116.378032 7.67488625 116.378032 7.67488625 117.770485 5.86272997 117.689604 4.74352127L116.559466 4.83533136C116.559466 4.83533136 116.327755 6.83329377 115.188872 7.55903066 115.188872 7.55903066 116.587883 5.30312562 116.301523 4.87467854 116.301523 4.87467854 115.267567 5.02113749 115.01181 5.19164194 115.01181 5.19164194 114.812888 6.62125618 114.113383 6.98412463 114.113383 6.98412463 114.889397 5.37744807 114.732008 5.26377844 114.732008 5.26377844 113.435737 5.81463897 112.926409 6.43982196 113.366334 5.84058825 113.955756 5.36724152 114.635826 5.06704253 114.212552 4.88999231 113.746553 4.84133992 113.295836 4.92714144 113.295836 4.92714144 113.853254 4.30195846 114.950603 4.93807122 114.950603 4.93807122 115.978002 4.54897132 116.152878 4.59924827 116.152878 4.59924827 115.158269 3.81886251 114.334164 3.68114738 114.334164 3.68114738 115.324402 3.39915925 116.450168 4.55552918L117.584679 4.43967359C117.584679 4.43967359 116.325569 3.34669634 115.599832 3.16089021 115.599832 3.16089021 116.655648 3.02973294 117.87541 4.43311573L118.994619 4.48120673C118.994619 4.48120673 117.982522 3.4494362 117.217438 3.08000989 117.217438 3.08000989 118.222977 3.16744807 119.315955 4.50743818L120.059179 4.62766568C120.059179 4.62766568 119.302839 3.89755687 119.066756 3.70956479 118.830673 3.5215727 118.863462 3.43850643 118.863462 3.43850643 119.471775 3.70750577 119.993258 4.140435 120.369585 4.6888724 120.369585 4.6888724 121.888823 5.02113749 121.925984 4.93807122zM147.418586 11.2620376C147.418586 11.2620376 144.751721 3.36855589 139.72184 6.47042532 139.72184 6.47042532 138.694441 6.68902077 138.613561 7.71860534 138.613561 7.71860534 139.017962 7.56996044 139.197211 8.40062315 139.263806 8.69610293 139.364297 8.98290497 139.496686 9.25533136 139.677353 9.62196294 139.971829 9.92027368 140.336093 10.1056677 140.336093 10.1056677 142.111088 11.9090801 145.993343 11.3123145 145.993343 11.3123145 147.018556 11.6227201 147.206548 11.5156083L146.113571 10.4423046C146.113571 10.4423046 145.35723 11.2664095 144.434758 11.2336202 144.434758 11.2336202 146.102641 10.5078833 145.964926 10.2739862 145.936508 10.2280811 145.365974 9.73186944 145.365974 9.73186944 145.365974 9.73186944 144.041286 11.1592977 142.620415 11.0653017 142.620415 11.0653017 144.721118 10.4663501 145.149565 9.53513353L144.24458 8.83781405C144.24458 8.83781405 142.919891 10.4160732 141.295727 10.3679822 141.295727 10.3679822 143.481682 9.6662908 144.034728 8.695727L143.051048 8.12956479C143.051048 8.12956479 141.739476 9.64443126 140.379812 9.59634026 140.379812 9.59634026 142.810593 8.53178042 142.817151 8.01589515 142.817151 8.01589515 141.883749 7.55028684 141.575529 7.54591494 141.575529 7.54591494 140.600593 8.61047478 139.826766 8.51429278 139.826766 8.51429278 141.374421 7.62898121 141.308843 7.44754698 141.308843 7.44754698 139.931691 7.16555885 139.155678 7.39289812 139.857557 7.14852141 140.611153 7.09200166 141.341632 7.22895153 141.092189 6.84400125 140.73591 6.54013924 140.316419 6.35456973 140.316419 6.35456973 141.129594 6.15564787 141.673897 7.30108803 141.673897 7.30108803 142.740643 7.56558853 142.854313 7.70330366 142.854313 7.70330366 142.478328 6.49884273 141.877191 5.91737883 141.877191 5.91737883 142.854313 6.24745796 143.120999 7.8453907L144.122166 8.39187933C144.122166 8.39187933 143.709021 6.77208704 143.210623 6.20592483 143.210623 6.20592483 144.157141 6.69557864 144.362621 8.54271019L145.258863 9.21817013C145.258863 9.21817013 145.009664 7.79292779 144.58996 7.05407517 144.58996 7.05407517 145.36816 7.6967458 145.508061 9.4214639L146.052364 9.94172107C146.052364 9.94172107 145.851256 8.90557864 145.76819 8.61266073 145.685124 8.31974283 145.752888 8.30006924 145.752888 8.30006924 146.100391 8.86713629 146.284234 9.51928835 146.284075 10.184362 146.284075 10.184362 147.342077 11.3188724 147.418586 11.2620376zM130.014016 11.6511375C130.014016 11.6511375 121.729248 10.7286647 122.413452 16.6066963 122.413452 16.6066963 122.166439 17.6253511 123.069238 18.1368645 123.069238 18.1368645 123.1064 17.6996736 123.94362 17.8964095 124.239497 17.9600725 124.541613 17.9901375 124.844233 17.9860336 125.253004 17.9786514 125.648226 17.8382132 125.97 17.586004 125.97 17.586004 128.354876 16.7400396 129.467527 12.9692681 129.467527 12.9692681 130.180148 12.1713947 130.164847 11.9549852L128.733046 12.4839862C128.733046 12.4839862 129.170237 13.5179426 128.733046 14.3398615 128.733046 14.3398615 128.778952 12.5233333 128.514451 12.5517507 128.459802 12.5517507 127.769041 12.8665282 127.769041 12.8665282 127.769041 12.8665282 128.503521 14.6699407 127.817132 15.9268645 127.817132 15.9268645 128.162512 13.7671414 127.50454 12.9889416L126.488071 13.5135707C126.488071 13.5135707 127.362453 15.3825618 126.630158 16.8340356 126.630158 16.8340356 126.914332 14.5650148 126.273848 13.644728L125.344817 14.3005143C125.344817 14.3005143 126.157992 16.1389021 125.543739 17.343363 125.543739 17.343363 125.607132 14.6896142 125.141523 14.4644609 125.141523 14.4644609 124.323976 15.1202473 124.190633 15.3913056 124.190633 15.3913056 124.74368 16.7247379 124.326162 17.391454 124.326162 17.391454 124.179703 15.614273 123.987339 15.5967854 123.987339 15.5967854 123.147933 16.7269238 123.025519 17.5247972 123.101345 16.7850761 123.369653 16.0781297 123.803719 15.4743719 123.350113 15.5370562 122.924669 15.7307851 122.579585 16.0317903 122.579585 16.0317903 122.741345 15.2120574 124.009199 15.2033136 124.009199 15.2033136 124.697774 14.3486053 124.883581 14.3027003 124.883581 14.3027003 123.631029 14.1343818 122.850643 14.4338576 122.850643 14.4338576 123.561078 13.6862611 125.12185 14.1212661L126.042136 13.4458061C126.042136 13.4458061 124.378625 13.1091691 123.674748 13.3277646 123.674748 13.3277646 124.518526 12.6719782 126.280406 13.2731157L127.270643 12.7463007C127.270643 12.7463007 125.873818 12.3703165 125.027854 12.4380811 125.027854 12.4380811 125.939397 12.0008902 127.559189 12.6063996L128.263066 12.3331553C128.263066 12.3331553 127.237854 12.0773986 126.936192 12.0293076 126.63453 11.9812166 126.6236 11.8981503 126.6236 11.8981503 127.284444 11.8223274 127.953369 11.9312925 128.555984 12.2129278 128.555984 12.2129278 130.029318 11.7429476 130.014016 11.6511375zM202.500267 75.955361C202.500267 75.955361 194.219871 75.0328882 194.904075 80.904362 194.904075 80.904362 194.657062 81.9230168 195.559862 82.4345302 195.559862 82.4345302 195.597023 81.9973393 196.434243 82.1918892 196.729778 82.2577092 197.032147 82.2877993 197.334857 82.2815134 197.74383 82.275253 198.1394 82.1346915 198.460623 81.8814837 198.460623 81.8814837 200.8455 81.0355193 201.947221 77.2669337 201.947221 77.2669337 202.659842 76.4668744 202.64454 76.2526508L201.21274 76.7794659C201.21274 76.7794659 201.649931 77.8156083 201.21274 78.6375272 201.21274 78.6375272 201.258645 76.8188131 200.994144 76.8494164 200.939496 76.8494164 200.248734 77.1620079 200.248734 77.1620079 200.248734 77.1620079 200.983215 78.9654204 200.296825 80.2223442 200.296825 80.2223442 200.642206 78.0648071 199.984233 77.2844214L198.967765 77.8112364C198.967765 77.8112364 199.842146 79.6802275 199.112038 81.1317013 199.112038 81.1317013 199.394026 78.8626805 198.753541 77.9402077L197.82451 78.5959941C197.82451 78.5959941 198.637685 80.4343818 198.023432 81.6366568 198.023432 81.6366568 198.086825 78.982908 197.621217 78.7599407 197.621217 78.7599407 196.805856 79.415727 196.670326 79.6867854 196.670326 79.6867854 197.225559 81.0202176 196.805856 81.6869337 196.805856 81.6869337 196.659397 79.9097527 196.467033 79.8922651 196.467033 79.8922651 195.627626 81.0224036 195.505213 81.820277 195.581038 81.0805558 195.849346 80.3736094 196.283412 79.7698516 195.829483 79.8314163 195.403731 80.0252855 195.059278 80.32727 195.059278 80.32727 195.221039 79.5053511 196.488892 79.4966073 196.488892 79.4966073 197.179654 78.6418991 197.363274 78.59818 197.363274 78.59818 196.110722 78.4276756 195.330336 78.7271513 195.330336 78.7271513 196.040772 77.9817409 197.603729 78.4167458L198.52183 77.7412859C198.52183 77.7412859 196.877992 77.4308803 196.163185 77.6451039 196.163185 77.6451039 197.006963 76.9893175 198.768843 77.588269L199.75908 77.06364C199.75908 77.06364 198.362255 76.6876558 197.516291 76.7554204 197.516291 76.7554204 198.427834 76.3182295 200.047626 76.9237389L200.751503 76.6483086C200.751503 76.6483086 199.726291 76.3925519 199.424629 76.3466469 199.122967 76.3007418 199.112038 76.2154896 199.112038 76.2154896 199.772694 76.1382908 200.441798 76.2465282 201.044421 76.5280811 201.044421 76.5280811 202.522127 76.0493571 202.500267 75.955361zM215.15913 83.6892681C215.15913 83.6892681 206.878734 82.7689812 207.562938 88.638269 207.562938 88.638269 207.318111 89.6569238 208.218724 90.1684372 208.218724 90.1684372 208.255885 89.7312463 209.093106 89.9279822 209.388129 89.9921814 209.689668 90.0215283 209.991533 90.0154204 210.398433 90.0070934 210.791758 89.8675511 211.112928 89.6175767 211.112928 89.6175767 213.495618 88.7716123 214.597339 85.0008408 214.597339 85.0008408 215.312146 84.2029674 215.294659 83.9865579L213.862859 84.5133729C213.862859 84.5133729 214.300049 85.5495153 213.862859 86.3714342 213.862859 86.3714342 213.908764 84.554906 213.644263 84.5833234 213.589614 84.5833234 212.898853 84.8959149 212.898853 84.8959149 212.898853 84.8959149 213.633333 86.6993274 212.946944 87.9562512 212.946944 87.9562512 213.292324 85.7987141 212.634352 85.0205143L211.617883 85.5451434C211.617883 85.5451434 212.492265 87.4141345 211.762156 88.8656083 211.762156 88.8656083 212.044144 86.5965875 211.40366 85.6763007L210.474629 86.332087C210.474629 86.332087 211.287804 88.1704748 210.675737 89.3749357 210.675737 89.3749357 210.736944 86.719001 210.271335 86.4960336 210.271335 86.4960336 209.455974 87.15182 209.320445 87.4228783 209.320445 87.4228783 209.875678 88.7563106 209.455974 89.4230267 209.455974 89.4230267 209.309515 87.6458457 209.117151 87.6283581 209.117151 87.6283581 208.277745 88.7584965 208.157517 89.5563699 208.233194 88.8169735 208.500694 88.1101684 208.933531 87.5059446 208.479925 87.5686289 208.054481 87.7623578 207.709397 88.063363 207.709397 88.063363 207.873343 87.2414441 209.141197 87.2348863 209.141197 87.2348863 209.829773 86.380178 210.015579 86.334273 210.015579 86.334273 208.763027 86.1659545 207.982641 86.4654303 207.982641 86.4654303 208.693076 85.7178338 210.256034 86.1528388L211.174135 85.4773788C211.174135 85.4773788 209.530297 85.1669733 208.81549 85.3811968 208.81549 85.3811968 209.659268 84.7254105 211.421147 85.326548L212.411385 84.7997329C212.411385 84.7997329 211.01456 84.4237488 210.168595 84.4915134 210.168595 84.4915134 211.080138 84.0543225 212.699931 84.6598318L213.403808 84.3865875C213.403808 84.3865875 212.378595 84.1308309 212.07912 84.0827399 211.779644 84.0346489 211.764342 83.9515826 211.764342 83.9515826 212.425186 83.8757597 213.094111 83.9847247 213.696726 84.26636 213.696726 84.26636 215.180989 83.7832641 215.15913 83.6892681zM187.054313 18.545638C187.054313 18.545638 180.382779 13.5551039 177.997903 18.9609693 177.997903 18.9609693 177.26998 19.7151236 177.792423 20.6179228 177.792423 20.6179228 178.041622 20.2659842 178.666805 20.849634 178.888247 21.0556467 179.133326 21.2346865 179.396914 21.3830069 179.753993 21.5816529 180.166124 21.6583998 180.570772 21.6016024 180.570772 21.6016024 183.054016 22.0803264 185.91543 19.3894164 185.91543 19.3894164 186.934085 19.0615232 187.030267 18.8691592L185.528516 18.5981009C185.528516 18.5981009 185.371128 19.7063798 184.595114 20.2025915 184.595114 20.2025915 185.554748 18.6593076 185.305549 18.5478239 185.255272 18.5237784 184.50549 18.4385262 184.50549 18.4385262 184.50549 18.4385262 184.223501 20.3665381 182.999367 21.0944609 182.999367 21.0944609 184.39182 19.40909 184.21913 18.4035509L183.075875 18.3423442C183.075875 18.3423442 182.881325 20.3949555 181.51729 21.2780811 181.51729 21.2780811 182.911929 19.4659248 182.828863 18.3467161L181.696538 18.4385262C181.696538 18.4385262 181.477943 20.4343027 180.328131 21.1600396 180.328131 21.1600396 181.727141 18.9041345 181.438595 18.4756874 181.438595 18.4756874 180.404639 18.6221464 180.148882 18.7926508 180.148882 18.7926508 179.952146 20.2222651 179.252641 20.5851335 179.252641 20.5851335 180.026469 18.978457 179.86908 18.8669733 179.86908 18.8669733 178.572809 19.4156479 178.063482 20.0408309 178.504072 19.4422352 179.093308 18.9690383 179.772898 18.6680514 179.350058 18.4923082 178.885145 18.4436898 178.435094 18.5281503 178.435094 18.5281503 178.992512 17.9029674 180.089862 18.5390801 180.089862 18.5390801 181.115074 18.1521662 181.289951 18.2002572 181.289951 18.2002572 180.295341 17.4198714 179.471236 17.2843422 179.471236 17.2843422 180.46366 17.0001682 181.589426 18.158724L182.723937 18.0428684C182.723937 18.0428684 181.464827 16.9498912 180.73909 16.766271 180.73909 16.766271 181.794906 16.6329278 183.012483 18.0363106L184.133877 18.0865875C184.133877 18.0865875 183.119594 17.054817 182.356696 16.6832047 182.356696 16.6832047 183.362235 16.7706429 184.453027 18.110633L185.198437 18.2308605C185.198437 18.2308605 184.444283 17.4920079 184.2082 17.2996439 183.972117 17.1072799 184.007092 17.0438872 184.007092 17.0438872 184.61436 17.3136215 185.134954 17.7464405 185.511029 18.2942532 185.511029 18.2942532 187.025895 18.6352621 187.054313 18.545638zM192.208793 54.5745401C192.208793 54.5745401 189.909169 46.5673887 184.737201 49.4419189 184.737201 49.4419189 183.701058 49.6014936 183.572087 50.637636 183.572087 50.637636 183.983046 50.5086647 184.125134 51.3458853 184.177821 51.6466617 184.26587 51.9401577 184.387448 52.2202671 184.549588 52.5969463 184.830585 52.9101886 185.187507 53.1121365 185.187507 53.1121365 186.879436 54.9920574 190.783551 54.5723541 190.783551 54.5723541 191.793462 54.9264787 191.985826 54.8302967L190.951869 53.7067161C190.951869 53.7067161 190.158368 54.4980317 189.240267 54.4237092 189.240267 54.4237092 190.936568 53.7679228 190.80541 53.5340257 190.779179 53.4859347 190.23269 52.9634916 190.23269 52.9634916 190.23269 52.9634916 188.846795 54.3318991 187.430297 54.1723244 187.430297 54.1723244 189.55723 53.6695549 190.025025 52.7645697L189.150643 52.0257171C189.150643 52.0257171 187.756004 53.5427695 186.136212 53.424728 186.136212 53.424728 188.339654 52.8192186 188.947349 51.8770722L187.989901 51.2671909C187.989901 51.2671909 186.60182 52.7208506 185.255272 52.6115529 185.255272 52.6115529 187.731958 51.6562908 187.762562 51.1425915 187.762562 51.1425915 186.848833 50.63545 186.540613 50.6179624 186.540613 50.6179624 185.519773 51.6366172 184.743759 51.5054599 184.743759 51.5054599 186.330762 50.6900989 186.273927 50.5064787 186.273927 50.5064787 184.909891 50.1632839 184.125134 50.3534619 184.83589 50.1426984 185.589312 50.1208492 186.311088 50.2900692 186.079897 49.8945336 185.73793 49.5753644 185.327409 49.3719683 185.327409 49.3719683 186.149327 49.2080218 186.638981 50.3775074 186.638981 50.3775074 187.690425 50.687913 187.799723 50.832186 187.799723 50.832186 187.478388 49.6102374 186.903482 49.004728 186.903482 49.004728 187.865302 49.3763403 188.059852 50.9852028L189.034787 51.5775964C189.034787 51.5775964 188.693778 49.9381306 188.221612 49.3610386 188.221612 49.3610386 189.144085 49.8922255 189.268684 51.7459149L190.143066 52.4607221C190.143066 52.4607221 189.95726 51.0267359 189.572532 50.2747676 189.572532 50.2747676 190.322315 50.9524135 190.383521 52.6793175L190.903778 53.2258061C190.903778 53.2258061 190.750762 52.1809199 190.685183 51.8836301 190.619604 51.5863403 190.685183 51.5448071 190.685183 51.5448071 191.008657 52.1262537 191.163827 52.786291 191.133304 53.4509594 191.133304 53.4509594 192.130099 54.627003 192.208793 54.5745401zM140.965648 72.6174085C140.965648 72.6174085 136.499743 65.5830069 132.352987 69.7931553 132.352987 69.7931553 131.404283 70.2303462 131.570415 71.2686746 131.570415 71.2686746 131.931098 71.0282196 132.30271 71.7933037 132.43624 72.064441 132.602124 72.3184043 132.796736 72.5496439 133.057377 72.8652581 133.414525 73.0864599 133.813205 73.1791988 133.813205 73.1791988 135.96637 74.5082591 139.595054 73.0043225 139.595054 73.0043225 140.663986 73.0611573 140.821375 72.9146983L139.509802 72.1277547C139.509802 72.1277547 138.969871 73.1114342 138.067072 73.2972404 138.067072 73.2972404 139.514174 72.2042631 139.319624 72.0031553 139.282463 71.9638081 138.609189 71.6184273 138.609189 71.6184273 138.609189 71.6184273 137.662671 73.3190999 136.259288 73.5661128 136.259288 73.5661128 138.158882 72.4840653 138.355618 71.4828981L137.308546 71.0216617C137.308546 71.0216617 136.397003 72.8687933 134.81 73.2076162 134.81 73.2076162 136.7555 72.0075272 137.072463 70.9320376L135.979486 70.6172601C135.979486 70.6172601 135.057013 72.403185 133.73451 72.6764293 133.73451 72.6764293 135.841771 71.0631949 135.725915 70.5604253 135.725915 70.5604253 134.70726 70.3309001 134.414342 70.4008506 134.414342 70.4008506 133.721395 71.6665183 132.938823 71.7583284 132.938823 71.7583284 134.232908 70.529822 134.125796 70.3680613 134.125796 70.3680613 132.720227 70.4227102 132.020722 70.8271118 132.644694 70.4228726 133.363715 70.1892283 134.106123 70.1494659 133.773733 69.8348711 133.35657 69.6243898 132.906034 69.5439565 132.906034 69.5439565 133.647072 69.1570425 134.436202 70.1407221 134.436202 70.1407221 135.529179 70.1407221 135.68001 70.2500198 135.68001 70.2500198 135.024224 69.1570425 134.305045 68.748269 134.305045 68.748269 135.332443 68.8357072 135.970742 70.3243422L137.074649 70.6172601C137.074649 70.6172601 136.285519 69.1417409 135.671266 68.7198516 135.671266 68.7198516 136.705223 68.9690504 137.345707 70.7156281L138.377478 71.152819C138.377478 71.152819 137.796014 69.8303165 137.212364 69.2116914 137.212364 69.2116914 138.121721 69.6488823 138.666024 71.2905341L139.32181 71.6687043C139.32181 71.6687043 138.884619 70.7090702 138.729416 70.4445697 138.574214 70.1800692 138.63542 70.1188625 138.63542 70.1188625 139.108448 70.586105 139.442218 71.1756896 139.599426 71.8217211 139.599426 71.8217211 140.906627 72.691731 140.965648 72.6174085z" opacity=".1"/>
    <path fill="#008DEA" d="M170.316459 36.6759446C170.316459 36.6759446 166.069149 29.5081998 161.791236 33.5871909 161.791236 33.5871909 160.829416 34.0025223 160.964946 35.0386647 160.964946 35.0386647 161.33 34.8069535 161.679753 35.5829674 161.804822 35.8588195 161.962615 36.1186279 162.149733 36.3567953 162.400755 36.6791524 162.751136 36.9096663 163.146528 37.0125816 163.146528 37.0125816 165.255974 38.4072206 168.930564 37.0125816 168.930564 37.0125816 169.99731 37.1022057 170.15907 36.9601187L168.875915 36.1338279C168.875915 36.1338279 168.307567 37.0978338 167.39821 37.2574085 167.39821 37.2574085 168.878101 36.2015925 168.692295 36.0026706 168.652948 35.9611375 167.992789 35.5938971 167.992789 35.5938971 167.992789 35.5938971 166.993808 37.2661523 165.588239 37.4694461 165.588239 37.4694461 167.520623 36.4464194 167.745776 35.453996L166.714006 34.9687141C166.714006 34.9687141 165.745628 36.7896142 164.147695 37.0803462 164.147695 37.0803462 166.130356 35.9414639 166.480109 34.8769041L165.400247 34.5271513C165.400247 34.5271513 164.42094 36.2759149 163.091879 36.5163699 163.091879 36.5163699 165.24723 34.9687141 165.146677 34.4637587 165.146677 34.4637587 164.136766 34.2014441 163.835104 34.2626508 163.835104 34.2626508 163.102809 35.506459 162.318051 35.5742235 162.318051 35.5742235 163.649298 34.3894362 163.548744 34.2233037 163.548744 34.2233037 162.140989 34.2342334 161.430554 34.6167755 162.066966 34.2329044 162.792607 34.0219186 163.535628 34.0047082 163.212522 33.6797596 162.801457 33.4563714 162.353027 33.3620376 162.353027 33.3620376 163.107181 32.9969832 163.883195 34.0047082 163.883195 34.0047082 164.976172 34.0418694 165.122631 34.1533531 165.122631 34.1533531 164.504006 33.0603759 163.795757 32.6100692 163.795757 32.6100692 164.818783 32.7281108 165.411177 34.2364194L166.504154 34.5643126C166.504154 34.5643126 165.763116 33.0647478 165.159792 32.623185 165.159792 32.623185 166.187191 32.9051731 166.773027 34.6692384L167.789496 35.1435905C167.789496 35.1435905 167.249565 33.8036004 166.696518 33.1762315 166.696518 33.1762315 167.590574 33.6418398 168.086785 35.2987933L168.72727 35.696637C168.72727 35.696637 168.316311 34.7238872 168.172038 34.4550148 168.027765 34.1861424 168.088971 34.1271217 168.088971 34.1271217 168.547187 34.6087328 168.862745 35.2080668 169.000514 35.8583976 169.000514 35.8583976 170.253066 36.7480811 170.316459 36.6759446zM143.44452 51.7481009C143.44452 51.7481009 143.663116 43.4196142 137.876894 44.5934718 137.876894 44.5934718 136.840752 44.4338971 136.403561 45.3826014 136.403561 45.3826014 136.840752 45.3826014 136.718338 46.2241939 136.678293 46.5242828 136.673891 46.8280556 136.705223 47.129179 136.744739 47.5376191 136.917577 47.9217023 137.197062 48.2221563 137.197062 48.2221563 138.239763 50.5261523 142.089228 51.308724 142.089228 51.308724 142.943937 51.9535806 143.15816 51.9186053L142.502374 50.5370821C142.502374 50.5370821 141.507765 51.0485955 140.653056 50.7010287 140.653056 50.7010287 142.467399 50.5939169 142.417122 50.3272305 142.417122 50.2725816 142.041137 49.6080514 142.041137 49.6080514 142.041137 49.6080514 140.30549 50.493363 139.004847 49.9118991 139.004847 49.9118991 141.190801 50.0758457 141.905608 49.3566667L141.295727 48.3882888C141.295727 48.3882888 139.507616 49.4113155 137.999308 48.8079921 137.999308 48.8079921 140.28363 48.8998022 141.149268 48.1849951L140.421345 47.3106133C140.421345 47.3106133 138.65728 48.2768051 137.406914 47.7652918 137.406914 47.7652918 140.056291 47.6057171 140.248655 47.1226212 140.248655 47.1226212 139.531662 46.364095 139.243116 46.2482394 139.243116 46.2482394 137.962146 46.9040257 137.262641 46.5499011 137.262641 46.5499011 139.011405 46.2569832 139.022334 46.0624332 139.022334 46.0624332 137.826617 45.3213947 137.02 45.2667458 137.763792 45.2800436 138.491108 45.4880635 139.129446 45.8700692 139.029854 45.4232605 138.801926 45.0152696 138.47366 44.6962117 138.47366 44.6962117 139.306508 44.7902077 139.420178 46.0515035 139.420178 46.0515035 140.331721 46.6679426 140.390742 46.8384471 140.390742 46.8384471 140.454135 45.5771513 140.08908 44.825183 140.08908 44.825183 140.893511 45.4700396 140.59185 47.0614144L141.341632 47.9226805C141.341632 47.9226805 141.512136 46.2569832 141.238892 45.5640356 141.238892 45.5640356 141.955885 46.3487933 141.514322 48.1543917L142.119832 49.0965381C142.119832 49.0965381 142.377774 47.6734817 142.240059 46.8362611 142.240059 46.8362611 142.747201 47.7106429 142.283778 49.3741543L142.616044 50.0518002C142.616044 50.0518002 142.784362 49.0090999 142.806222 48.7052522 142.828081 48.4014045 142.911147 48.381731 142.911147 48.381731 143.042736 49.0338217 142.990516 49.7096521 142.760317 50.3337883 142.760317 50.3337883 143.348338 51.7765183 143.44452 51.7481009z"/>
    <ellipse cx="153.01" cy="156.58" fill="#008DEA" opacity=".1" rx="5.887" ry="1"/>
    <ellipse cx="131.551" cy="171.68" fill="#008DEA" opacity=".1" rx="5.887" ry="1"/>
    <ellipse cx="176.201" cy="170.686" fill="#008DEA" opacity=".1" rx="5.887" ry="1"/>
    <ellipse cx="182.33" cy="158.066" fill="#008DEA" rx="8.79" ry="1.486"/>
    <path fill="#008DEA" d="M185.974451,155.633403 C186.375709,155.307354 186.667813,154.86653 186.811672,154.369921 C186.920969,153.867151 186.706746,153.266014 186.228022,153.082394 C185.690277,152.876914 185.115371,153.248526 184.67818,153.62451 C184.240989,154.000495 183.744777,154.431128 183.174243,154.352433 C183.769978,153.811244 184.038719,152.997556 183.882493,152.208012 C183.857724,152.047152 183.789725,151.896041 183.685757,151.770821 C183.386281,151.451672 182.84635,151.589387 182.487854,151.840772 C181.351157,152.640831 181.034194,154.184115 181.027636,155.574382 C180.913966,155.073798 181.010148,154.551355 181.007962,154.044214 C181.005776,153.537072 180.863689,152.951236 180.428684,152.68455 C180.161673,152.535668 179.859963,152.46024 179.554303,152.465955 C179.042789,152.448467 178.472255,152.498744 178.124688,152.872542 C177.687498,153.335964 177.803353,154.11635 178.179337,154.621306 C178.555321,155.126261 179.130227,155.451968 179.659228,155.806093 C180.082612,156.058926 180.4441,156.403235 180.71723,156.813818 C180.748356,156.871008 180.773974,156.931027 180.793739,156.993066 L183.998348,156.993066 C184.715765,156.631732 185.380584,156.174301 185.974451,155.633403 Z"/>
  </g>
</svg>
